<?xml version="1.0" encoding="UTF-8" standalone="no"?>
<!DOCTYPE svg PUBLIC "-//W3C//DTD SVG 1.1//EN" "http://www.w3.org/Graphics/SVG/1.1/DTD/svg11.dtd">
<svg version="1.1" xmlns="http://www.w3.org/2000/svg" xmlns:xl="http://www.w3.org/1999/xlink" xmlns:dc="http://purl.org/dc/elements/1.1/" viewBox="183.5 204 371.667 78.75" width="371.667" height="78.75">
  <defs/>
  <g id="Canvas_2" stroke-dasharray="none" stroke-opacity="1" stroke="none" fill="none" fill-opacity="1">
    <title>Canvas 2</title>
    <g id="Canvas_2_Layer_1">
      <title>Layer 1</title>
      <g id="Graphic_24">
        <rect x="183.5" y="204" width="371.667" height="78.75" fill="white"/>
      </g>
      <g id="Graphic_23">
        <path d="M 256.31 250.8181 L 249.929 250.8181 L 249.929 249.9991 L 252.144 249.9991 L 252.144 237.3041 L 247.714 237.3041 L 247.714 239.0761 L 246.65 239.0761 L 246.65 235.5771 L 247.714 235.5771 L 247.714 236.1941 L 258.525 236.1941 L 258.525 235.5771 L 259.588 235.5771 L 259.588 239.0761 L 258.525 239.0761 L 258.525 237.3041 L 254.094 237.3041 L 254.094 249.9991 L 256.31 249.9991 Z" fill="black"/>
      </g>
      <g id="Graphic_22">
        <path d="M 276.4469 250.8181 L 271.1739 250.8181 L 271.1739 249.9991 L 272.8359 249.9991 L 272.8359 243.9051 L 264.5279 243.9051 L 264.5279 249.9991 L 266.1899 249.9991 L 266.1899 250.8181 L 260.9169 250.8181 L 260.9169 249.9991 L 262.5789 249.9991 L 262.5789 237.0141 L 260.9169 237.0141 L 260.9169 236.1941 L 266.1899 236.1941 L 266.1899 237.0141 L 264.5279 237.0141 L 264.5279 242.9091 L 272.8359 242.9091 L 272.8359 237.0141 L 271.1739 237.0141 L 271.1739 236.1941 L 276.4469 236.1941 L 276.4469 237.0141 L 274.7629 237.0141 L 274.7629 249.9991 L 276.4469 249.9991 Z" fill="black"/>
      </g>
      <g id="Graphic_21">
        <path d="M 288.3825 250.8181 L 278.3025 250.8181 L 278.3025 249.9991 L 279.9645 249.9991 L 279.9645 237.0141 L 278.3025 237.0141 L 278.3025 236.1941 L 287.1425 236.1941 L 287.1425 235.5771 L 288.1615 235.5771 L 288.1615 239.0981 L 287.1645 239.0981 L 287.1645 237.2161 L 281.9145 237.2161 L 281.9145 242.8871 L 286.1015 242.8871 L 286.1015 241.2261 L 287.1205 241.2041 L 287.1205 245.5671 L 286.1015 245.5901 L 286.1015 243.8831 L 281.9145 243.8831 L 281.9145 249.8211 L 287.3635 249.8211 L 287.3635 247.8741 L 288.3825 247.8741 Z" fill="black"/>
      </g>
      <g id="Graphic_20">
        <path d="M 310.2671 237.0141 L 308.6051 237.0141 L 308.6051 245.4561 C 308.6051 247.8261 307.7631 249.3551 305.9241 250.3551 C 304.9941 250.8401 303.9311 251.1071 302.8451 251.1071 C 299.6331 251.1071 297.2621 248.9781 297.2621 246.0791 L 297.2621 237.0141 L 295.6011 237.0141 L 295.6011 236.1941 L 300.8741 236.1941 L 300.8741 237.0141 L 299.2121 237.0141 L 299.2121 245.3921 C 299.2121 248.0721 300.7841 249.8211 303.2441 249.8211 C 305.7701 249.8211 307.4761 248.0261 307.4761 245.3691 L 307.4761 237.0141 L 305.8141 237.0141 L 305.8141 236.1941 L 310.2671 236.1941 Z" fill="black"/>
      </g>
      <g id="Graphic_19">
        <path d="M 323.9312 251.0624 L 323.2432 251.0624 L 314.7362 239.3644 L 314.7362 249.9984 L 316.4212 249.9984 L 316.4212 250.8184 L 311.9462 250.8184 L 311.9462 249.9984 L 313.6292 249.9984 L 313.6292 237.8564 L 313.0312 237.0144 L 311.5022 237.0144 L 311.5022 236.1944 L 314.7152 236.1944 L 322.8242 247.3164 L 322.8242 237.0144 L 321.1392 237.0144 L 321.1392 236.1944 L 325.5932 236.1944 L 325.5932 237.0144 L 323.9312 237.0144 Z" fill="black"/>
      </g>
      <g id="Graphic_18">
        <path d="M 332.4793 250.8181 L 327.2063 250.8181 L 327.2063 249.9991 L 328.8673 249.9991 L 328.8673 237.0141 L 327.2063 237.0141 L 327.2063 236.1941 L 332.4793 236.1941 L 332.4793 237.0141 L 330.8173 237.0141 L 330.8173 249.9991 L 332.4793 249.9991 Z" fill="black"/>
      </g>
      <g id="Graphic_17">
        <path d="M 341.4284 251.1931 L 340.6754 251.1931 L 335.0924 237.0141 L 333.7854 237.0141 L 333.7854 236.1941 L 339.2794 236.1941 L 339.2794 237.0141 L 337.1964 237.0141 L 341.4954 247.8931 L 345.7484 237.0141 L 344.2854 237.0141 L 344.2854 236.1941 L 348.0744 236.1941 L 348.0744 237.0141 L 346.9674 237.0141 Z" fill="black"/>
      </g>
      <g id="Graphic_16">
        <path d="M 359.4811 250.8181 L 349.4031 250.8181 L 349.4031 249.9991 L 351.0651 249.9991 L 351.0651 237.0141 L 349.4031 237.0141 L 349.4031 236.1941 L 358.2441 236.1941 L 358.2441 235.5771 L 359.2611 235.5771 L 359.2611 239.0981 L 358.2661 239.0981 L 358.2661 237.2161 L 353.0151 237.2161 L 353.0151 242.8871 L 357.2031 242.8871 L 357.2031 241.2261 L 358.2201 241.2041 L 358.2201 245.5671 L 357.2031 245.5901 L 357.2031 243.8831 L 353.0151 243.8831 L 353.0151 249.8211 L 358.4641 249.8211 L 358.4641 247.8741 L 359.4811 247.8741 Z" fill="black"/>
      </g>
      <g id="Graphic_15">
        <path d="M 374.41 250.8181 L 372.527 250.8181 C 371.22 250.8181 370.978 250.6851 370.247 249.5121 L 366.944 244.2601 L 365.218 244.2601 L 365.218 249.9991 L 366.88 249.9991 L 366.88 250.8181 L 361.606 250.8181 L 361.606 249.9991 L 363.269 249.9991 L 363.269 237.0141 L 361.606 237.0141 L 361.606 236.1941 L 367.766 236.1941 C 369.914 236.1941 371.132 236.7941 371.797 238.1691 C 372.087 238.7661 372.241 239.4311 372.241 240.1391 C 372.241 242.2881 371.044 243.6611 368.918 243.9731 L 372.108 248.8901 C 372.638 249.7101 372.993 249.9771 373.548 249.9771 L 374.41 249.9771 Z M 365.218 243.2421 L 367.344 243.2421 C 369.028 243.2421 370.203 242.0001 370.203 240.1851 C 370.203 238.2801 369.163 237.2161 367.3 237.2161 L 365.218 237.2161 Z" fill="black"/>
      </g>
      <g id="Graphic_14">
        <path d="M 377.2449 251.0179 L 376.2009 251.0179 L 376.2009 247.0319 L 377.2449 247.0319 L 377.2449 248.7779 C 378.5939 249.6879 379.1929 249.9069 380.1699 249.9069 C 381.9469 249.9069 383.1439 248.9789 383.1439 247.5839 C 383.1439 246.3219 382.2799 245.3919 379.8809 244.1499 C 377.0879 242.6869 376.1359 241.5799 376.1359 239.7639 C 376.1359 237.5709 377.9969 235.9309 380.5039 235.9309 C 381.6159 235.9309 382.4339 236.1299 383.1439 236.5509 L 383.1439 235.7529 L 384.1609 235.7529 L 384.1609 239.5419 L 383.1439 239.5419 L 383.1439 237.9679 C 382.0109 237.2159 381.4579 236.9949 380.5689 236.9949 C 379.0599 236.9949 378.0829 237.9029 378.0829 239.2759 C 378.0829 240.4069 378.7279 241.0479 381.5049 242.6429 C 384.2709 244.2379 385.0689 245.2139 385.0689 247.0319 C 385.0689 249.3339 383.1659 251.1069 380.6599 251.1069 C 379.2599 251.1069 378.3489 250.8179 377.2449 250.1089 Z" fill="black"/>
      </g>
      <g id="Graphic_13">
        <path d="M 392.3764 250.8181 L 387.1064 250.8181 L 387.1064 249.9991 L 388.7674 249.9991 L 388.7674 237.0141 L 387.1064 237.0141 L 387.1064 236.1941 L 392.3764 236.1941 L 392.3764 237.0141 L 390.7144 237.0141 L 390.7144 249.9991 L 392.3764 249.9991 Z" fill="black"/>
      </g>
      <g id="Graphic_12">
        <path d="M 403.4735 250.8181 L 397.0935 250.8181 L 397.0935 249.9991 L 399.3085 249.9991 L 399.3085 237.3041 L 394.8805 237.3041 L 394.8805 239.0761 L 393.8145 239.0761 L 393.8145 235.5771 L 394.8805 235.5771 L 394.8805 236.1941 L 405.6885 236.1941 L 405.6885 235.5771 L 406.7535 235.5771 L 406.7535 239.0761 L 405.6885 239.0761 L 405.6885 237.3041 L 401.2585 237.3041 L 401.2585 249.9991 L 403.4735 249.9991 Z" fill="black"/>
      </g>
      <g id="Graphic_11">
        <path d="M 417.4695 250.8181 L 412.1985 250.8181 L 412.1985 249.9991 L 413.8595 249.9991 L 413.8595 244.0841 L 409.2765 237.0141 L 407.9905 237.0141 L 407.9905 236.1941 L 413.4605 236.1941 L 413.4605 237.0141 L 411.4435 237.0141 L 415.2545 242.8201 L 418.7765 237.0141 L 416.7625 237.0141 L 416.7625 236.1941 L 421.1925 236.1941 L 421.1925 237.0141 L 420.0415 237.0141 L 415.7895 243.9511 L 415.7895 249.9991 L 417.4695 249.9991 Z" fill="black"/>
      </g>
      <g id="Graphic_10">
        <path d="M 426.9038 243.5287 C 426.9038 239.3647 430.1378 235.9307 434.0608 235.9307 C 437.9158 235.9307 441.1488 239.3857 441.1488 243.5087 C 441.1488 247.6267 437.9158 251.1067 434.0608 251.1067 C 430.1618 251.1067 426.9038 247.6477 426.9038 243.5287 M 429.0978 243.5087 C 429.0978 247.2527 431.1788 249.9547 434.0608 249.9547 C 436.8948 249.9547 438.9548 247.2287 438.9548 243.5087 C 438.9548 239.7867 436.8948 237.0837 434.0828 237.0837 C 431.1788 237.0837 429.0978 239.7397 429.0978 243.5087" fill="black"/>
      </g>
      <g id="Graphic_9">
        <path d="M 447.7916 250.8181 L 442.5186 250.8181 L 442.5186 249.9991 L 444.1796 249.9991 L 444.1796 237.0141 L 442.5186 237.0141 L 442.5186 236.1941 L 451.3566 236.1941 L 451.3566 235.5771 L 452.3776 235.5771 L 452.3776 239.0981 L 451.3786 239.0981 L 451.3786 237.2161 L 446.1296 237.2161 L 446.1296 242.8871 L 450.3156 242.8871 L 450.3156 241.2261 L 451.3366 241.2041 L 451.3366 245.5671 L 450.3156 245.5901 L 450.3156 243.8831 L 446.1296 243.8831 L 446.1296 249.9991 L 447.7916 249.9991 Z" fill="black"/>
      </g>
      <g id="Graphic_8">
        <path d="M 461.7058 251.0399 L 460.6628 251.0399 L 460.6628 247.0459 L 461.7058 247.0459 L 461.7058 248.7959 C 463.0598 249.7069 463.6588 249.9289 464.6348 249.9289 C 466.4098 249.9289 467.6088 248.9969 467.6088 247.5999 C 467.6088 246.3359 466.7408 245.4039 464.3468 244.1619 C 461.5508 242.6979 460.5968 241.5869 460.5968 239.7679 C 460.5968 237.5699 462.4608 235.9289 464.9678 235.9289 C 466.0768 235.9289 466.8978 236.1279 467.6088 236.5509 L 467.6088 235.7519 L 468.6298 235.7519 L 468.6298 239.5459 L 467.6088 239.5459 L 467.6088 237.9699 C 466.4758 237.2159 465.9208 236.9939 465.0338 236.9939 C 463.5248 236.9939 462.5478 237.9039 462.5478 239.2789 C 462.5478 240.4109 463.1918 241.0539 465.9648 242.6519 C 468.7408 244.2499 469.5388 245.2269 469.5388 247.0459 C 469.5388 249.3539 467.6298 251.1279 465.1228 251.1279 C 463.7258 251.1279 462.8148 250.8399 461.7058 250.1299 Z" fill="black"/>
      </g>
      <g id="Graphic_7">
        <path d="M 479.4315 250.8397 L 474.1515 250.8397 L 474.1515 250.0187 L 475.8165 250.0187 L 475.8165 244.0947 L 471.2235 237.0157 L 469.9365 237.0157 L 469.9365 236.1957 L 475.4155 236.1957 L 475.4155 237.0157 L 473.3975 237.0157 L 477.2145 242.8297 L 480.7425 237.0157 L 478.7215 237.0157 L 478.7215 236.1957 L 483.1605 236.1957 L 483.1605 237.0157 L 482.0065 237.0157 L 477.7475 243.9617 L 477.7475 250.0187 L 479.4315 250.0187 Z" fill="black"/>
      </g>
      <g id="Graphic_6">
        <path d="M 484.2681 250.8397 L 484.2681 250.0187 L 485.9331 250.0187 L 485.9331 237.0157 L 484.2681 237.0157 L 484.2681 236.1957 L 490.8131 236.1957 C 494.8071 236.1957 498.0701 239.4787 498.0701 243.4947 C 498.0701 247.5997 494.8741 250.8397 490.7911 250.8397 Z M 487.8841 249.7287 L 490.5471 249.7287 C 493.5871 249.7287 495.8951 247.0457 495.8721 243.5177 C 495.8721 240.1007 493.5191 237.3267 490.5911 237.3267 L 487.8841 237.3267 Z" fill="black"/>
      </g>
      <g id="Graphic_5">
        <path d="M 510.8684 251.0822 L 510.1814 251.0822 L 501.6624 239.3682 L 501.6624 250.0182 L 503.3474 250.0182 L 503.3474 250.8392 L 498.8674 250.8392 L 498.8674 250.0182 L 500.5524 250.0182 L 500.5524 237.8582 L 499.9544 237.0152 L 498.4214 237.0152 L 498.4214 236.1952 L 501.6394 236.1952 L 509.7594 247.3332 L 509.7594 237.0152 L 508.0744 237.0152 L 508.0744 236.1952 L 512.5344 236.1952 L 512.5344 237.0152 L 510.8684 237.0152 Z" fill="black"/>
      </g>
      <g id="Graphic_4">
        <path d="M 524.1368 250.8397 L 514.0398 250.8397 L 514.0398 250.0187 L 515.7048 250.0187 L 515.7048 237.0157 L 514.0398 237.0157 L 514.0398 236.1957 L 522.8938 236.1957 L 522.8938 235.5737 L 523.9148 235.5737 L 523.9148 239.1027 L 522.9168 239.1027 L 522.9168 237.2157 L 517.6578 237.2157 L 517.6578 242.8957 L 521.8528 242.8957 L 521.8528 241.2327 L 522.8708 241.2107 L 522.8708 245.5797 L 521.8528 245.6027 L 521.8528 243.8937 L 517.6578 243.8937 L 517.6578 249.8407 L 523.1168 249.8407 L 523.1168 247.8877 L 524.1368 247.8877 Z" fill="black"/>
      </g>
      <g id="Graphic_3">
        <path d="M 535.1173 250.8397 L 529.8373 250.8397 L 529.8373 250.0187 L 531.5003 250.0187 L 531.5003 244.0947 L 526.9073 237.0157 L 525.6233 237.0157 L 525.6233 236.1957 L 531.1023 236.1957 L 531.1023 237.0157 L 529.0833 237.0157 L 532.9003 242.8297 L 536.4273 237.0157 L 534.4073 237.0157 L 534.4073 236.1957 L 538.8453 236.1957 L 538.8453 237.0157 L 537.6923 237.0157 L 533.4313 243.9617 L 533.4313 250.0187 L 535.1173 250.0187 Z" fill="black"/>
      </g>
      <g id="Graphic_2">
        <path d="M 220.466 249.943 L 223.693 249.943 L 223.693 249.452 L 220.466 249.452 Z M 220.466 251.284 L 223.693 251.284 L 223.693 250.794 L 220.466 250.794 Z M 220.466 248.602 L 223.693 248.602 L 223.693 248.111 L 220.466 248.111 Z M 218.142 249.452 L 214.914 249.452 L 214.914 249.943 L 218.142 249.943 Z M 218.142 250.795 L 214.914 250.795 L 214.914 251.285 L 218.142 251.285 Z M 218.142 248.111 L 214.914 248.111 L 214.914 248.602 L 218.142 248.602 Z M 223.268 239.511 C 221.957 239.444 220.623 239.404 219.303 239.404 C 217.986 239.404 216.654 239.444 215.346 239.51 L 215.346 246.053 L 202.867 246.053 C 203.387 249.191 204.661 252.133 206.493 254.581 C 206.74 254.232 207.145 254.004 207.604 254.004 L 215.346 254.004 L 215.346 260.809 C 216.611 261.159 217.933 261.351 219.301 261.351 L 219.301 261.406 L 219.307 261.406 L 219.307 261.351 C 220.676 261.351 222.001 261.159 223.268 260.807 L 223.268 254.004 L 231.012 254.004 C 231.466 254.004 231.87 254.229 232.118 254.576 C 233.947 252.13 235.221 249.189 235.74 246.053 L 223.268 246.053 Z M 217.018 241.551 L 218.704 242.354 L 219.307 240.598 L 219.934 242.364 L 221.598 241.551 L 220.795 243.243 L 222.547 243.848 L 220.786 244.478 L 221.598 246.146 L 219.91 245.344 L 219.307 247.099 L 218.679 245.333 L 217.018 246.146 L 217.817 244.451 L 216.067 243.848 L 217.828 243.218 Z M 211.12 252.357 L 209.455 251.544 L 208.828 253.31 L 208.228 251.555 L 206.536 252.357 L 207.351 250.689 L 205.589 250.06 L 207.339 249.455 L 206.536 247.759 L 208.2 248.573 L 208.828 246.809 L 209.43 248.563 L 211.12 247.759 L 210.308 249.429 L 212.067 250.06 L 210.317 250.662 Z M 213.794 252.234 L 213.061 252.234 L 213.061 251.694 L 213.794 251.694 Z M 213.794 250.793 L 213.061 250.793 L 213.061 250.25 L 213.794 250.25 Z M 213.794 249.348 L 213.061 249.348 L 213.061 248.809 L 213.794 248.809 Z M 213.794 247.907 L 213.061 247.907 L 213.061 247.366 L 213.794 247.366 Z M 214.185 252.236 L 214.185 247.034 L 217.451 247.034 C 217.513 247.024 217.586 247.034 217.651 247.034 C 218.398 247.034 218.971 247.61 218.971 248.345 L 218.971 252.705 C 218.729 252.416 218.364 252.234 217.956 252.234 C 217.902 252.234 215.207 252.235 214.185 252.236 M 221.597 259.021 L 219.909 258.217 L 219.307 259.978 L 218.679 258.206 L 217.016 259.021 L 217.818 257.327 L 216.067 256.721 L 217.827 256.091 L 217.016 254.424 L 218.704 255.227 L 219.307 253.472 L 219.936 255.238 L 221.597 254.424 L 220.797 256.118 L 222.547 256.721 L 220.786 257.353 Z M 227.487 247.759 L 229.179 248.563 L 229.779 246.809 L 230.408 248.573 L 232.071 247.759 L 231.269 249.455 L 233.019 250.06 L 231.257 250.689 L 232.071 252.357 L 230.38 251.555 L 229.779 253.31 L 229.151 251.544 L 227.487 252.357 L 228.29 250.662 L 226.54 250.06 L 228.299 249.429 Z M 224.812 247.366 L 225.546 247.366 L 225.546 247.907 L 224.812 247.907 Z M 224.812 248.81 L 225.546 248.81 L 225.546 249.349 L 224.812 249.349 Z M 224.812 250.25 L 225.546 250.25 L 225.546 250.793 L 224.812 250.793 Z M 224.812 251.694 L 225.546 251.694 L 225.546 252.234 L 224.812 252.234 Z M 224.424 247.034 L 224.424 252.236 C 223.4 252.235 220.705 252.234 220.652 252.234 C 220.244 252.234 219.88 252.416 219.636 252.705 L 219.636 248.345 C 219.636 247.61 220.211 247.034 220.956 247.034 C 221.021 247.034 221.095 247.024 221.157 247.034 Z M 230.856 224.853 C 227.637 224.173 223.39 223.494 219.303 223.494 C 213.172 223.493 206.686 225.023 203.839 225.789 C 203.27 225.941 202.848 226.063 202.601 226.135 L 202.601 240.142 C 204.447 239.844 212.073 238.681 219.303 238.68 C 226.533 238.681 234.158 239.843 236.005 240.142 L 236.005 226.135 C 235.757 226.063 235.336 225.941 234.767 225.789 C 233.817 225.534 232.465 225.195 230.856 224.853 M 213.415 226.325 C 213.667 226.267 213.123 225.848 213.478 225.867 C 213.711 225.88 214.473 225.882 215.051 226.165 C 215.161 226.212 215.228 226.002 215.447 225.861 C 215.465 225.85 215.517 225.83 215.557 225.86 C 215.784 226.001 215.864 226.206 215.974 226.158 C 216.548 225.882 217.304 225.882 217.532 225.867 C 217.901 225.844 217.344 226.267 217.596 226.325 C 218.899 226.628 219.865 227.736 219.865 229.057 C 219.865 229.439 219.772 229.795 219.642 230.128 C 219.571 230.306 219.385 229.797 219.317 230.094 C 219.189 230.632 219.059 231.036 218.775 231.572 C 218.505 232.075 218.058 231.02 217.919 231.319 C 217.667 231.85 217.078 232.034 216.666 232.097 C 216.619 232.102 216.575 232.096 216.631 232.042 C 216.653 232.022 216.753 231.929 216.779 231.741 C 216.783 231.72 216.771 231.691 216.815 231.671 C 217.126 231.523 217.36 231.233 217.429 230.883 C 217.528 230.559 217.659 230.097 217.818 229.811 C 218.171 229.181 217.742 228.418 217.852 228.248 C 218.094 228.09 218.254 227.815 218.254 227.502 C 218.254 227.009 217.854 226.609 217.365 226.609 C 217.099 226.609 216.861 226.726 216.702 226.91 L 216.676 226.934 C 216.595 227.021 216.516 227.11 216.445 227.204 C 216.365 227.308 216.383 227.496 216.522 227.534 C 217.129 227.693 217.525 229.063 217.277 229.508 C 217.167 229.706 216.832 230.444 216.832 230.658 C 216.832 230.935 216.61 231.158 216.335 231.158 C 216.125 231.158 215.947 231.028 215.873 230.833 C 215.873 230.833 215.881 230.817 215.883 230.812 C 216.051 230.707 216.421 230.484 216.421 230.253 L 216.347 229.502 C 216.649 229.465 216.789 229.301 216.826 229.014 C 216.853 228.995 216.88 228.975 216.904 228.955 C 217.005 228.862 217.072 228.612 216.856 228.647 C 216.548 228.705 216.199 228.694 215.862 228.788 C 215.817 228.8 215.784 228.841 215.775 228.884 C 215.761 228.949 215.959 229.856 216.003 230.057 C 216.007 230.08 215.991 230.094 215.98 230.094 C 215.844 230.083 215.598 230.071 215.538 230.071 C 215.479 230.072 215.24 230.085 215.097 230.096 C 215.083 230.097 215.063 230.079 215.068 230.06 C 215.113 229.846 215.311 228.943 215.311 228.943 C 215.316 228.906 215.311 228.866 215.29 228.836 C 215.225 228.75 214.344 228.675 214.225 228.651 C 214.175 228.642 214.125 228.662 214.093 228.704 C 214.006 228.828 214.159 228.967 214.256 229.026 C 214.295 229.304 214.44 229.465 214.733 229.502 C 214.736 229.506 214.742 229.515 214.746 229.517 C 214.736 229.566 214.662 230.261 214.662 230.265 C 214.662 230.506 215.026 230.708 215.206 230.814 C 215.216 230.827 215.229 230.843 215.232 230.859 C 215.144 231.034 214.973 231.158 214.775 231.158 C 214.499 231.158 214.278 230.935 214.278 230.658 C 214.278 230.481 213.948 229.71 213.824 229.5 C 213.56 229.043 213.953 227.694 214.583 227.535 C 214.719 227.502 214.79 227.304 214.684 227.199 C 214.42 226.937 214.118 226.609 213.718 226.609 C 213.227 226.609 212.83 227.009 212.83 227.502 C 212.83 228.067 213.262 228.157 213.232 228.313 C 213.058 228.837 213.055 229.409 213.29 229.812 C 213.452 230.091 213.576 230.537 213.674 230.856 C 213.733 231.184 213.931 231.463 214.21 231.627 C 214.349 231.708 214.281 231.815 214.339 231.932 C 214.367 231.989 214.411 232.026 214.447 232.056 C 214.506 232.102 214.46 232.112 214.411 232.106 C 213.997 232.053 213.357 231.878 213.094 231.319 C 212.955 231.02 212.504 232.075 212.238 231.572 C 211.953 231.036 211.823 230.632 211.696 230.094 C 211.627 229.797 211.441 230.306 211.37 230.128 C 211.24 229.795 211.148 229.439 211.148 229.057 C 211.148 227.736 212.114 226.628 213.415 226.325 M 217.126 227.247 C 217.111 227.234 217.114 227.182 217.132 227.171 C 217.196 227.121 217.277 227.093 217.365 227.093 C 217.584 227.093 217.762 227.27 217.762 227.49 C 217.762 227.615 217.705 227.725 217.617 227.798 C 217.593 227.82 217.549 227.795 217.541 227.775 C 217.427 227.57 217.289 227.388 217.126 227.247 M 216.226 231.736 C 216.131 231.989 215.777 231.904 215.588 232.06 C 215.568 232.079 215.512 232.079 215.496 232.065 C 215.308 231.904 214.956 231.983 214.843 231.709 C 214.834 231.688 214.834 231.643 214.885 231.635 C 215.133 231.607 215.355 231.486 215.516 231.309 C 215.529 231.292 215.572 231.276 215.607 231.318 C 215.753 231.48 215.957 231.599 216.184 231.635 C 216.211 231.64 216.252 231.663 216.226 231.736 M 213.552 227.798 C 213.544 227.811 213.503 227.826 213.469 227.803 C 213.38 227.728 213.322 227.617 213.322 227.49 C 213.322 227.27 213.499 227.093 213.718 227.093 C 213.824 227.093 213.921 227.135 213.994 227.203 C 214.023 227.225 214.006 227.277 213.99 227.292 C 213.819 227.43 213.67 227.606 213.552 227.798 M 210.033 232.929 C 209.763 232.929 209.651 233.017 209.452 233.144 C 209.327 233.231 209.289 232.987 209.437 232.486 C 209.556 232.093 208.788 231.881 208.605 232.065 C 208.347 232.267 207.686 232.663 207.041 231.981 C 206.912 231.844 207.335 231.89 207.36 231.77 C 207.397 231.595 207.558 231.489 207.625 231.418 C 207.662 231.365 207.662 231.283 207.596 231.252 C 207.397 231.145 207.126 230.915 207.202 230.49 C 207.212 230.43 206.865 230.41 206.98 230.303 C 207.586 229.741 208.247 230.091 208.513 230.272 C 208.559 230.289 208.653 230.298 208.662 230.208 C 208.682 230.026 208.588 229.905 208.952 229.602 C 209.022 229.543 208.741 229.297 208.938 229.309 C 210.193 229.625 209.624 230.931 209.885 231.161 C 210.363 231.59 211.521 231.927 212.611 232.162 C 212.705 232.182 213.043 232.303 213.114 232.34 C 213.994 232.791 214.532 232.747 215.008 232.559 C 215.161 232.5 215.159 232.693 215.107 232.742 C 213.36 234.414 212.031 233.99 211.561 233.686 C 211.235 233.476 210.566 233.469 210.257 233.9 C 210.204 233.951 210.11 233.984 210.071 233.847 C 209.979 233.525 210.079 233.316 210.174 233.084 C 210.233 232.963 210.085 232.929 210.033 232.929 M 226.689 234.482 C 226.455 234.687 226.037 234.912 225.375 234.888 C 225.095 234.876 224.959 234.957 224.889 235.04 C 224.848 235.096 224.822 235.167 224.817 235.181 C 224.779 235.32 224.829 235.468 224.903 235.584 C 224.974 235.685 224.947 235.751 224.838 235.777 C 224.728 235.806 224.584 235.809 224.3 235.671 C 224.175 235.611 224.139 235.688 224.122 235.747 C 224.075 235.885 224.166 236.057 224.352 236.181 C 224.448 236.265 224.43 236.346 224.281 236.399 C 224.031 236.486 223.806 236.371 223.439 236.167 C 223.224 236.046 223.056 236.027 222.911 236.199 C 222.828 236.294 222.837 236.383 222.884 236.433 C 223.027 236.574 223.112 236.859 222.757 237.308 C 222.639 237.457 222.512 237.046 222.404 237.095 C 221.916 237.323 221.517 237.024 221.366 236.819 C 221.333 236.777 221.265 236.764 221.18 236.818 C 220.937 236.982 220.416 237.252 220.215 236.781 C 220.183 236.712 219.897 236.888 219.901 236.753 C 219.911 235.973 220.586 235.826 220.875 235.801 C 220.963 235.792 220.98 235.749 220.934 235.678 C 220.819 235.509 220.68 235.308 220.756 235.074 C 220.809 234.901 220.367 234.861 220.548 234.772 C 221.439 234.327 221.937 235.179 222.091 235.27 C 222.349 235.419 223.512 235.041 223.654 234.409 C 223.684 234.285 223.382 234.23 223.083 234.155 C 223.029 234.143 222.999 234.073 223.098 233.994 C 223.803 233.467 224.368 232.785 225.643 232.657 C 225.798 232.641 225.86 232.77 225.865 232.832 C 225.889 233.031 225.941 233.225 226.026 233.406 C 226.21 233.799 226.431 234.042 226.656 234.221 C 226.764 234.307 226.751 234.428 226.689 234.482 M 232.027 234.081 C 232.139 234.14 232.142 234.212 232.059 234.285 C 231.973 234.36 231.843 234.43 231.529 234.437 C 231.392 234.439 231.394 234.525 231.404 234.584 C 231.424 234.728 231.585 234.839 231.809 234.866 C 231.929 234.897 231.951 234.978 231.843 235.091 C 231.657 235.286 231.408 235.286 230.987 235.27 C 230.591 235.256 230.274 235.739 230.508 235.94 C 230.665 236.076 230.985 236.376 230.709 237.191 C 230.621 237.437 230.472 236.965 230.345 237.039 C 230.017 237.235 229.73 236.988 229.581 236.81 C 229.517 236.735 229.459 236.732 229.416 236.81 C 229.284 237.041 228.938 237.446 228.24 237.068 C 228.088 236.987 227.776 237.266 227.758 237.17 C 227.645 236.625 227.923 236.303 228.16 236.133 C 228.184 236.114 228.275 235.99 228.121 235.995 C 227.885 235.982 227.597 235.905 227.565 235.616 C 227.56 235.554 227.264 235.569 227.278 235.486 C 227.349 235.086 228.227 234.795 228.832 235.198 C 229.344 235.537 229.987 234.379 229.525 233.836 C 229.19 233.445 227.235 234.539 226.57 233.119 C 226.304 232.547 226.638 232.059 226.367 232.02 C 226.094 231.981 224.865 231.714 223.5 232.815 C 221.194 234.675 218.694 233.661 218.106 233.247 C 218.014 233.218 217.925 233.292 217.963 233.385 C 218.058 233.625 218.018 233.848 217.902 234.018 C 217.662 234.382 216.833 234.754 216.687 234.798 C 215.716 235.084 215.818 235.828 215.92 236.16 C 215.95 236.261 215.913 236.322 215.809 236.303 C 215.512 236.248 214.912 236.065 214.677 235.48 C 214.651 235.412 214.583 235.41 214.503 235.468 C 214.141 235.726 214.269 236.101 214.355 236.267 C 214.387 236.333 214.369 236.396 214.284 236.406 C 213.953 236.445 213.715 236.058 213.43 236.086 C 213.244 236.104 213.026 236.248 212.908 236.331 C 212.85 236.367 212.841 236.461 212.877 236.569 C 213.239 237.647 212.644 237.683 212.608 237.664 C 212.566 237.641 212.59 237.461 212.416 237.434 C 211.833 237.466 211.666 237.084 211.634 236.801 C 211.622 236.71 211.587 236.678 211.525 236.72 C 211.302 236.875 210.758 237.179 210.416 236.731 C 210.367 236.668 210.204 236.735 210.115 236.773 C 210.044 236.803 210.042 236.686 210.044 236.65 C 210.085 236.034 210.5 235.758 210.729 235.651 C 210.813 235.611 210.823 235.567 210.755 235.517 C 210.571 235.379 210.245 235.082 210.348 234.759 C 210.367 234.699 210.076 234.583 210.149 234.53 C 210.82 234.042 211.681 234.852 211.791 234.939 C 211.906 235.032 212.517 235.051 214.073 234.174 C 215.063 233.616 215.58 233.155 215.862 232.804 C 215.897 232.764 215.968 232.689 216.069 232.686 C 216.697 232.664 217.317 232.571 217.801 232.143 C 217.881 232.06 217.963 232.109 217.997 232.133 C 218.887 232.754 219.346 231.379 219.53 230.751 C 219.553 230.624 219.581 230.518 219.716 230.512 C 222.994 230.669 229.207 230.647 229.207 230.647 C 229.207 230.647 230.026 230.713 229.983 230.202 C 229.918 229.383 226.529 229.401 224 229.751 C 223.082 229.877 221.748 229.951 220.959 229.644 C 220.632 229.517 220.367 229.314 220.22 229.051 C 220.063 228.718 220.104 228.518 220.134 228.307 C 220.172 228.154 220.247 227.992 220.354 227.82 C 221.001 226.815 222.502 226.739 222.967 226.739 C 223.056 226.739 223.112 226.701 223.124 226.635 C 223.172 226.403 223.347 225.867 223.975 225.832 C 224.152 225.821 224.332 225.754 224.443 225.702 C 224.518 225.668 224.565 225.689 224.552 225.754 C 224.534 225.835 224.495 225.943 224.403 226.024 C 223.962 226.404 224.026 226.578 224.08 226.628 C 224.11 226.652 224.15 226.64 224.183 226.609 C 225.519 225.441 226.297 226.214 226.535 226.467 C 226.575 226.511 226.585 226.583 226.508 226.602 C 225.6 226.805 225.25 227.618 223.397 227.487 C 223.172 227.472 221.654 227.396 221.172 228.085 C 220.895 228.486 221.088 228.859 221.907 229.041 C 222.529 229.178 223.98 228.967 224.664 228.91 C 225.333 228.855 228.252 228.489 229.782 228.932 C 230.428 229.117 231.367 229.637 231.18 230.619 C 231.058 231.239 230.464 231.483 230.464 231.483 C 230.464 231.483 228.784 232.669 231.796 232.681 C 232.73 232.686 231.811 233.457 231.763 233.684 C 231.73 233.848 231.881 233.995 232.027 234.081 M 226.499 227.527 C 226.407 227.543 226.277 227.583 226.135 227.677 C 225.863 227.86 224.774 228.315 224.433 227.768 C 224.433 227.768 225.196 227.741 225.694 227.3 C 225.694 227.3 226.228 227.117 226.54 227.401 C 226.576 227.434 226.581 227.512 226.499 227.527 M 219.307 221.464 C 209.055 221.464 198.845 224.203 198.845 224.203 L 198.845 237.896 C 198.845 250.238 207.65 263.069 219.303 265.286 C 231.387 262.915 239.771 250.238 239.771 237.896 L 239.771 224.203 C 239.771 224.203 231.219 221.464 219.307 221.464 M 236.727 242.894 C 236.726 252.941 229.117 262.065 219.307 262.076 L 219.301 262.076 C 209.489 262.065 201.881 252.941 201.879 242.894 L 201.879 225.598 L 202.134 225.52 C 202.151 225.516 210.976 222.772 219.303 222.77 C 227.632 222.772 236.472 225.52 236.472 225.52 L 236.727 225.598 Z" fill="black"/>
      </g>
    </g>
  </g>
</svg>
